<mxfile host="app.diagrams.net" modified="2023-07-05T09:34:53.697Z" agent="Mozilla/5.0 (Macintosh; Intel Mac OS X 10_15_7) AppleWebKit/537.36 (KHTML, like Gecko) Chrome/112.0.0.0 Safari/537.36" version="21.3.2" etag="QJ2x0nL-n5CF2JuXQ6GJ" type="github">
  <diagram name="第 1 页" id="wHlwaz7DuKsEuBHA9EsY">
    <mxGraphModel>
      <root>
        <mxCell id="0" />
        <mxCell id="1" parent="0" />
      </root>
    </mxGraphModel>
  </diagram>
</mxfile>
